<?xml version="1.0" encoding="UTF-8" standalone="no"?>
<!-- Created with Inkscape (http://www.inkscape.org/) -->

<svg
   xmlns:dc="http://purl.org/dc/elements/1.1/"
   xmlns:cc="http://creativecommons.org/ns#"
   xmlns:rdf="http://www.w3.org/1999/02/22-rdf-syntax-ns#"
   xmlns:svg="http://www.w3.org/2000/svg"
   xmlns="http://www.w3.org/2000/svg"
   xmlns:sodipodi="http://sodipodi.sourceforge.net/DTD/sodipodi-0.dtd"
   xmlns:inkscape="http://www.inkscape.org/namespaces/inkscape"
   width="51.121399mm"
   height="43.793163mm"
   viewBox="0 0 181.13882 155.17263"
   id="svg2"
   version="1.1"
   inkscape:version="0.91 r13725"
   sodipodi:docname="Icon-Finger.svg"
   inkscape:export-filename="/home/birgit/Dokumente/Brahma neu/Schule/moodle-Beratung/Lösung-Icon.png"
   inkscape:export-xdpi="30.171288"
   inkscape:export-ydpi="30.171288">
  <defs
     id="defs4" />
  <sodipodi:namedview
     id="base"
     pagecolor="#ffffff"
     bordercolor="#666666"
     borderopacity="1.0"
     inkscape:pageopacity="0.0"
     inkscape:pageshadow="2"
     inkscape:zoom="0.18566277"
     inkscape:cx="-46.106152"
     inkscape:cy="-55.472229"
     inkscape:document-units="px"
     inkscape:current-layer="layer1"
     showgrid="false"
     inkscape:window-width="1366"
     inkscape:window-height="687"
     inkscape:window-x="341"
     inkscape:window-y="1152"
     inkscape:window-maximized="1"
     showguides="true"
     inkscape:guide-bbox="true"
     fit-margin-top="0"
     fit-margin-left="0"
     fit-margin-right="0"
     fit-margin-bottom="0">
    <sodipodi:guide
       position="-953.81386,-87.663131"
       orientation="0,1"
       id="guide4285" />
  </sodipodi:namedview>
  <metadata
     id="metadata7">
    <rdf:RDF>
      <cc:Work
         rdf:about="">
        <dc:format>image/svg+xml</dc:format>
        <dc:type
           rdf:resource="http://purl.org/dc/dcmitype/StillImage" />
        <dc:title></dc:title>
      </cc:Work>
    </rdf:RDF>
  </metadata>
  <g
     inkscape:label="Ebene 1"
     inkscape:groupmode="layer"
     id="layer1"
     transform="translate(1837.2515,-569.87168)">
    <path
       style="fill:#000000"
       d=""
       id="path4173"
       inkscape:connector-curvature="0" />
    <path
       style="fill:#000000"
       d="m -1742.2878,725.00538 c -8.8755,-0.51171 -16.3831,-2.24369 -31.0504,-7.16305 -17.7308,-5.94687 -15.1717,-5.54296 -36.3254,-5.73342 -17.0871,-0.15386 -17.368,-0.16498 -18.9452,-0.75079 -3.9926,-1.48294 -6.8693,-4.57323 -8.1191,-8.72198 -0.5615,-1.86391 -0.5625,-1.94034 -0.4912,-36.42293 l 0.072,-34.55508 0.6051,-1.49568 c 0.7135,-1.76359 1.936,-3.67214 3.0981,-4.83641 1.0746,-1.07671 3.708,-2.77889 4.9405,-3.19348 0.6941,-0.23347 5.6482,-0.36417 17.7729,-0.46892 l 16.8106,-0.14523 1.2007,-0.62319 c 2.7993,-1.45282 6.8502,-5.11674 10.6677,-9.64864 10.1547,-12.05509 10.8274,-13.04325 16.8877,-24.80572 3.4262,-6.65009 5.741,-10.10665 8.444,-12.60919 3.1477,-2.91436 6.007,-3.96981 10.7277,-3.95992 7.9297,0.0166 14.4115,2.16977 20.0712,6.66728 3.6928,2.93455 6.2045,6.9957 7.685,12.42556 0.7934,7.10168 0.1736,12.60125 -1.2992,19.01196 l -0.1336,0.60038 19.5767,0.001 c 21.9275,0.002 22.8958,0.0636 27.2371,1.73987 2.9696,1.1466 4.4477,2.04389 7.2878,4.42386 3.1527,2.6419 5.059,5.04728 6.8954,8.7005 4.2864,8.5273 3.1119,19.16853 -2.952,26.74755 -4.4791,5.59809 -10.6098,9.16534 -17.0186,9.90241 -1.1768,0.13536 -6.2417,0.24701 -11.2554,0.24813 l -9.1156,0.002 -0.1693,1.13405 c -0.5142,3.44591 -1.4193,6.46816 -2.7122,9.05632 l -0.8916,1.78507 0.1604,3.28479 c 0.3183,6.52131 -1.6223,13.24981 -5.2059,18.04883 -0.5804,0.77718 -0.6904,1.28649 -0.8775,4.06143 -0.2342,3.47352 -1.1205,7.49979 -2.2356,10.15559 -2.9784,7.09351 -9.1484,12.70123 -16.8543,15.31836 -3.5204,1.1956 -10.3721,2.05542 -14.4881,1.8181 z m 8.8055,-13.70362 c 6.0855,-1.41334 9.8711,-4.93514 11.3315,-10.542 0.5632,-2.16232 0.7975,-7.057 0.4402,-9.19698 l -0.2896,-1.73419 1.5963,-1.42191 c 2.5087,-2.23463 4.1387,-5.47716 4.8559,-9.65921 0.3805,-2.21906 0.037,-4.75692 -0.9865,-7.29117 l -0.6506,-1.61066 0.9905,-1.16007 c 1.4174,-1.66003 3.1994,-4.76435 3.717,-6.47487 0.3058,-1.01075 0.438,-2.38128 0.4245,-4.40278 -0.022,-3.25244 -0.7033,-5.87782 -2.233,-8.60137 -0.4316,-0.76827 -0.7846,-1.48872 -0.7847,-1.60101 0,-0.11229 7.163,-0.16957 15.9178,-0.12728 18.1925,0.0879 19.8622,-0.0144 22.6414,-1.38666 2.1123,-1.04295 4.5344,-3.24841 5.6406,-5.13594 1.8691,-3.18952 2.2684,-7.36397 1.0212,-10.67748 -1.405,-3.73281 -4.7966,-6.94966 -8.7267,-8.2772 -1.3086,-0.44203 -3.4802,-0.48021 -31.5191,-0.5541 l -30.1137,-0.0794 0.168,-0.895 c 0.2099,-1.11882 1.3585,-3.98691 2.0925,-5.22472 0.3045,-0.51366 1.295,-2.13468 2.2009,-3.60227 4.1357,-6.69977 5.6617,-12.21685 4.9782,-17.99774 -0.511,-4.32212 -3.1808,-8.44199 -6.7103,-10.2793 -3.5659,-1.85626 -8.5522,-1.79277 -9.9913,-0.31175 -1.2108,1.24602 -3.3313,3.90419 -6.8141,10.71087 -1.1265,2.20139 -2.2799,4.4032 -2.5633,4.89293 -4.653,8.04064 -7.0131,11.25879 -14.7396,20.09851 -10.4838,11.99435 -15.3818,15.23694 -23.6662,15.66775 l -3.202,0.16651 -0.073,31.75332 c -0.041,17.46433 -0.01,32.0235 0.072,32.3537 0.1397,0.57866 0.2541,0.60038 3.162,0.60038 6.4693,0 10.0789,0.84445 25.6576,6.00263 15.153,5.01729 16.0742,5.27006 23.7482,6.51688 2.7088,0.44011 9.5028,0.1562 12.4078,-0.51846 z"
       id="path4249-6"
       inkscape:connector-curvature="0"
       sodipodi:nodetypes="cssssscsssscsssssscccsssssscccscsccssccssscssscsccsssssssscccssssscsscscssss"
       inkscape:export-xdpi="30"
       inkscape:export-ydpi="30" />
    <g
       id="g4452"
       transform="matrix(0.36160947,0,0,0.36160947,-1405.6123,360.68288)" />
  </g>
</svg>
